# Blender 4.0.1
# www.blender.org
mtllib env.mtl
o back_wall
v -2.715011 -2.742686 -2.785598
v 2.780989 -2.742686 -2.785598
v 2.780989 2.745313 -2.789967
v -2.779011 2.745313 -2.789967
vn -0.0000 0.0008 1.0000
s 0
usemtl Grey
f 1//1 3//1 4//1
f 1//1 2//1 3//1
o ceiling
v -2.779011 2.749765 2.802031
v -2.779011 2.745313 -2.789968
v 2.780989 2.745313 -2.789968
v 2.780989 2.749765 2.802031
vn -0.0000 -1.0000 0.0008
s 0
usemtl Cyan
f 6//2 8//2 5//2
f 6//2 7//2 8//2
o floor
v -2.747011 -2.738233 2.806401
v 2.780989 -2.738233 2.806401
v 2.780989 -2.742686 -2.785598
v -2.715011 -2.742686 -2.785598
vn -0.0000 1.0000 -0.0008
s 0
usemtl Green
f 10//3 12//3 9//3
f 10//3 11//3 12//3
o left_wall
v -2.747011 -2.738233 2.806401
v -2.715011 -2.742686 -2.785598
v -2.779011 2.745313 -2.789968
v -2.779011 2.749765 2.802031
vn 1.0000 0.0058 -0.0000
vn 0.9999 0.0117 0.0057
s 0
usemtl Green
f 13//4 15//4 16//4
f 13//5 14//5 15//5
o right_wall
v 2.780989 -2.742686 -2.785598
v 2.780989 -2.738233 2.806401
v 2.780989 2.749765 2.802031
v 2.780989 2.745313 -2.789968
vn -1.0000 -0.0000 -0.0000
s 0
usemtl Yellow
f 18//6 20//6 17//6
f 18//6 19//6 20//6
o sphere
usemtl Cobbles
v -1.129981 -2.480710 1.526699
v -1.356437 -2.480710 1.432898
v -1.582894 -2.480710 1.526699
v -1.676695 -2.480710 1.753155
v -1.582894 -2.480710 1.979611
v -1.356437 -2.480710 2.073412
v -1.129981 -2.480710 1.979611
v -1.036180 -2.480710 1.753155
v -0.938001 -2.299299 1.334719
v -1.356437 -2.299299 1.161396
v -1.774874 -2.299299 1.334719
v -1.948196 -2.299299 1.753155
v -1.774874 -2.299299 2.171592
v -1.356437 -2.299299 2.344914
v -0.938001 -2.299299 2.171592
v -0.764679 -2.299299 1.753155
v -0.809724 -2.027797 1.206442
v -1.356437 -2.027797 0.979986
v -1.903151 -2.027797 1.206442
v -2.129607 -2.027797 1.753155
v -1.903151 -2.027797 2.299868
v -1.356437 -2.027797 2.526324
v -0.809724 -2.027797 2.299868
v -0.583267 -2.027797 1.753155
v -0.764679 -1.707540 1.161396
v -1.356437 -1.707540 0.916282
v -1.948196 -1.707540 1.161396
v -2.193310 -1.707540 1.753155
v -1.948196 -1.707540 2.344914
v -1.356437 -1.707540 2.590028
v -0.764679 -1.707540 2.344914
v -0.519565 -1.707540 1.753155
v -0.809724 -1.387283 1.206442
v -1.356437 -1.387283 0.979986
v -1.903151 -1.387283 1.206442
v -2.129607 -1.387283 1.753155
v -1.903151 -1.387283 2.299868
v -1.356437 -1.387283 2.526324
v -0.809724 -1.387283 2.299868
v -0.583267 -1.387283 1.753155
v -0.938001 -1.115781 1.334718
v -1.356437 -1.115781 1.161396
v -1.774874 -1.115781 1.334718
v -1.948196 -1.115781 1.753155
v -1.774874 -1.115781 2.171591
v -1.356437 -1.115781 2.344914
v -0.938001 -1.115781 2.171591
v -0.764679 -1.115781 1.753155
v -1.129981 -0.934370 1.526699
v -1.356437 -0.934370 1.432898
v -1.582894 -0.934370 1.526699
v -1.676695 -0.934370 1.753155
v -1.582894 -0.934370 1.979611
v -1.356437 -0.934370 2.073412
v -1.129981 -0.934370 1.979611
v -1.036180 -0.934370 1.753155
v -1.356437 -2.544413 1.753155
v -1.356437 -0.870667 1.753155
vn 0.2243 -0.8103 -0.5414
vn -0.2243 -0.8103 -0.5414
vn -0.5414 -0.8103 -0.2243
vn -0.5414 -0.8103 0.2243
vn -0.2243 -0.8103 0.5414
vn 0.2243 -0.8103 0.5414
vn 0.5414 -0.8103 0.2243
vn 0.5414 -0.8103 -0.2243
vn 0.3256 -0.5253 -0.7862
vn -0.3256 -0.5253 -0.7862
vn -0.7862 -0.5253 -0.3256
vn -0.7862 -0.5253 0.3256
vn -0.3256 -0.5253 0.7862
vn 0.3256 -0.5253 0.7862
vn 0.7862 -0.5253 0.3256
vn 0.7862 -0.5253 -0.3256
vn 0.3764 -0.1807 -0.9087
vn -0.3764 -0.1807 -0.9087
vn -0.9087 -0.1807 -0.3764
vn -0.9087 -0.1807 0.3764
vn -0.3764 -0.1807 0.9087
vn 0.3764 -0.1807 0.9087
vn 0.9087 -0.1807 0.3764
vn 0.9087 -0.1807 -0.3764
vn 0.3764 0.1807 -0.9087
vn -0.3764 0.1807 -0.9087
vn -0.9087 0.1807 -0.3764
vn -0.9087 0.1807 0.3764
vn -0.3764 0.1807 0.9087
vn 0.3764 0.1807 0.9087
vn 0.9087 0.1807 0.3764
vn 0.9087 0.1807 -0.3764
vn 0.3256 0.5253 -0.7862
vn -0.3256 0.5253 -0.7862
vn -0.7862 0.5253 -0.3256
vn -0.7862 0.5253 0.3256
vn -0.3256 0.5253 0.7862
vn 0.3256 0.5253 0.7862
vn 0.7862 0.5253 0.3256
vn 0.7862 0.5253 -0.3256
vn 0.2243 0.8103 -0.5414
vn -0.2243 0.8103 -0.5414
vn -0.5414 0.8103 -0.2243
vn -0.5414 0.8103 0.2243
vn -0.2243 0.8103 0.5414
vn 0.2243 0.8103 0.5414
vn 0.5414 0.8103 0.2243
vn 0.5414 0.8103 -0.2243
vn 0.0805 -0.9776 -0.1945
vn -0.0805 -0.9776 -0.1945
vn -0.1945 -0.9776 -0.0805
vn -0.1945 -0.9776 0.0805
vn -0.0805 -0.9776 0.1945
vn 0.0805 -0.9776 0.1945
vn 0.1945 -0.9776 0.0805
vn 0.1945 -0.9776 -0.0805
vn 0.0805 0.9776 -0.1945
vn -0.0805 0.9776 -0.1945
vn -0.1945 0.9776 -0.0805
vn -0.1945 0.9776 0.0805
vn -0.0805 0.9776 0.1945
vn 0.0805 0.9776 0.1945
vn 0.1945 0.9776 0.0805
vn 0.1945 0.9776 -0.0805
s 0
usemtl Cobbles
f 21//7 22//7 29//7
f 29//7 22//7 30//7
f 22//8 23//8 30//8
f 30//8 23//8 31//8
f 23//9 24//9 31//9
f 31//9 24//9 32//9
f 24//10 25//10 32//10
f 32//10 25//10 33//10
f 25//11 26//11 33//11
f 33//11 26//11 34//11
f 26//12 27//12 34//12
f 34//12 27//12 35//12
f 27//13 28//13 35//13
f 35//13 28//13 36//13
f 28//14 21//14 36//14
f 37//15 30//15 38//15
f 36//14 21//14 29//14
f 30//16 31//16 38//16
f 38//16 31//16 39//16
f 31//17 32//17 39//17
f 39//17 32//17 40//17
f 29//15 30//15 37//15
f 32//18 33//18 40//18
f 40//18 33//18 41//18
f 33//19 34//19 41//19
f 41//19 34//19 42//19
f 34//20 35//20 42//20
f 42//20 35//20 43//20
f 35//21 36//21 43//21
f 43//21 36//21 44//21
f 36//22 29//22 44//22
f 44//22 29//22 37//22
f 37//23 38//23 45//23
f 45//23 38//23 46//23
f 38//24 39//24 46//24
f 46//24 39//24 47//24
f 39//25 40//25 47//25
f 47//25 40//25 48//25
f 40//26 41//26 48//26
f 48//26 41//26 49//26
f 41//27 42//27 49//27
f 49//27 42//27 50//27
f 42//28 43//28 50//28
f 50//28 43//28 51//28
f 43//29 44//29 51//29
f 51//29 44//29 52//29
f 44//30 37//30 52//30
f 52//30 37//30 45//30
f 45//31 46//31 53//31
f 53//31 46//31 54//31
f 46//32 47//32 54//32
f 54//32 47//32 55//32
f 47//33 48//33 55//33
f 55//33 48//33 56//33
f 48//34 49//34 56//34
f 56//34 49//34 57//34
f 49//35 50//35 57//35
f 57//35 50//35 58//35
f 50//36 51//36 58//36
f 58//36 51//36 59//36
f 51//37 52//37 59//37
f 59//37 52//37 60//37
f 52//38 45//38 60//38
f 60//38 45//38 53//38
f 53//39 54//39 61//39
f 61//39 54//39 62//39
f 54//40 55//40 62//40
f 62//40 55//40 63//40
f 55//41 56//41 63//41
f 63//41 56//41 64//41
f 56//42 57//42 64//42
f 64//42 57//42 65//42
f 57//43 58//43 65//43
f 65//43 58//43 66//43
f 58//44 59//44 66//44
f 66//44 59//44 67//44
f 59//45 60//45 67//45
f 67//45 60//45 68//45
f 60//46 53//46 68//46
f 68//46 53//46 61//46
f 61//47 62//47 69//47
f 69//47 62//47 70//47
f 62//48 63//48 70//48
f 70//48 63//48 71//48
f 63//49 64//49 71//49
f 71//49 64//49 72//49
f 64//50 65//50 72//50
f 72//50 65//50 73//50
f 65//51 66//51 73//51
f 73//51 66//51 74//51
f 66//52 67//52 74//52
f 74//52 67//52 75//52
f 67//53 68//53 75//53
f 75//53 68//53 76//53
f 68//54 61//54 76//54
f 76//54 61//54 69//54
f 22//55 21//55 77//55
f 23//56 22//56 77//56
f 24//57 23//57 77//57
f 25//58 24//58 77//58
f 26//59 25//59 77//59
f 27//60 26//60 77//60
f 28//61 27//61 77//61
f 21//62 28//62 77//62
f 69//63 70//63 78//63
f 70//64 71//64 78//64
f 71//65 72//65 78//65
f 72//66 73//66 78//66
f 73//67 74//67 78//67
f 74//68 75//68 78//68
f 75//69 76//69 78//69
f 76//70 69//70 78//70
vt 0.1 0.1
vt 0.1 0.9
vt 0.9 0.9
vt 0.9 0.1

s 0
usemtl Grey
f 79//71 81//71 82//71
f 79//71 80//71 81//71
o light.001
v -0.649011 2.739334 0.532032
v -0.649011 2.738497 -0.517968
v 0.650989 2.738497 -0.517968
v 0.650989 2.739334 0.532032
vn -0.0000 -1.0000 0.0008
s 0
usemtl White
f 84//72 86//72 83//72
f 84//72 85//72 86//72
o short_box.001
v 1.480989 -1.088751 2.155087
v 1.960989 -1.090025 0.555088
v 0.380989 -1.090399 0.085088
v -0.119011 -1.089141 1.665088
v -0.119011 -2.739141 1.666401
v -0.119011 -1.089141 1.665088
v 0.380989 -1.090399 0.085088
v 0.380989 -2.740399 0.086402
v 1.480989 -2.738750 2.156401
v 1.480989 -1.088751 2.155087
v -0.119011 -1.089141 1.665088
v -0.119011 -2.739141 1.666401
v 1.960989 -2.740024 0.556402
v 1.960989 -1.090025 0.555088
v 1.480989 -1.088751 2.155087
v 1.480989 -2.738750 2.156401
v 0.380989 -2.740399 0.086402
v 0.380989 -1.090399 0.085088
v 1.960989 -1.090025 0.555088
v 1.960989 -2.740024 0.556402
vn -0.0000 1.0000 -0.0008
vn -0.9534 -0.0002 -0.3017
vn -0.2928 0.0008 0.9562
vn 0.9578 0.0002 0.2873
vn 0.2851 -0.0008 -0.9585
s 0
usemtl Blue
f 87//73 89//73 90//73
f 92//74 94//74 91//74
f 96//75 98//75 95//75
f 100//76 102//76 99//76
f 104//77 106//77 103//77
f 87//73 88//73 89//73
f 92//74 93//74 94//74
f 96//75 97//75 98//75
f 100//76 101//76 102//76
f 104//77 105//77 106//77
o tall_box
v -1.449011 0.559799 0.333774
v 0.130989 0.559409 -0.156226
v -0.359011 0.558135 -1.756226
v -1.939011 0.558533 -1.256226
v -1.449011 -2.740200 0.336402
v -1.449011 0.559799 0.333774
v -1.939011 0.558533 -1.256226
v -1.939011 -2.741466 -1.253598
v -1.939011 -2.741466 -1.253598
v -1.939011 0.558533 -1.256226
v -0.359011 0.558135 -1.756226
v -0.359011 -2.741864 -1.753598
v -0.359011 -2.741864 -1.753598
v -0.359011 0.558135 -1.756226
v 0.130989 0.559409 -0.156226
v 0.130989 -2.740590 -0.153598
v 0.130989 -2.740590 -0.153598
v 0.130989 0.559409 -0.156226
v -1.449011 0.559799 0.333774
v -1.449011 -2.740200 0.336402
vn -0.0000 1.0000 -0.0008
vn -0.9556 0.0002 0.2945
vn -0.3017 -0.0008 -0.9534
vn 0.9562 -0.0002 -0.2928
vn 0.2962 0.0008 0.9551
s 0
usemtl Blue
f 108//78 110//78 107//78
f 111//79 113//79 114//79
f 116//80 118//80 115//80
f 120//81 122//81 119//81
f 124//82 126//82 123//82
f 108//78 109//78 110//78
f 111//79 112//79 113//79
f 116//80 117//80 118//80
f 120//81 121//81 122//81
f 124//82 125//82 126//82
