# Blender 4.0.1
# www.blender.org
mtllib ball.mtl
o sphere
usemtl Blue
v -1.235164 -2.480710 -1.315654
v -1.461620 -2.480710 -1.409455
v -1.688077 -2.480710 -1.315654
v -1.781878 -2.480710 -1.089198
v -1.688077 -2.480710 -0.862742
v -1.461620 -2.480710 -0.768941
v -1.235164 -2.480710 -0.862742
v -1.141363 -2.480710 -1.089198
v -1.043184 -2.299299 -1.507634
v -1.461620 -2.299299 -1.680957
v -1.880057 -2.299299 -1.507634
v -2.053379 -2.299299 -1.089198
v -1.880057 -2.299299 -0.670761
v -1.461620 -2.299299 -0.497439
v -1.043184 -2.299299 -0.670761
v -0.869862 -2.299299 -1.089198
v -0.914907 -2.027797 -1.635911
v -1.461620 -2.027797 -1.862367
v -2.008334 -2.027797 -1.635911
v -2.234790 -2.027797 -1.089198
v -2.008334 -2.027797 -0.542485
v -1.461620 -2.027797 -0.316029
v -0.914907 -2.027797 -0.542485
v -0.688450 -2.027797 -1.089198
v -0.869862 -1.707540 -1.680957
v -1.461620 -1.707540 -1.926071
v -2.053379 -1.707540 -1.680957
v -2.298493 -1.707540 -1.089198
v -2.053379 -1.707540 -0.497439
v -1.461620 -1.707540 -0.252325
v -0.869862 -1.707540 -0.497439
v -0.624748 -1.707540 -1.089198
v -0.914907 -1.387283 -1.635911
v -1.461620 -1.387283 -1.862367
v -2.008334 -1.387283 -1.635911
v -2.234790 -1.387283 -1.089198
v -2.008334 -1.387283 -0.542485
v -1.461620 -1.387283 -0.316029
v -0.914907 -1.387283 -0.542485
v -0.688450 -1.387283 -1.089198
v -1.043184 -1.115781 -1.507635
v -1.461620 -1.115781 -1.680957
v -1.880057 -1.115781 -1.507635
v -2.053379 -1.115781 -1.089198
v -1.880057 -1.115781 -0.670762
v -1.461620 -1.115781 -0.497439
v -1.043184 -1.115781 -0.670762
v -0.869862 -1.115781 -1.089198
v -1.235164 -0.934370 -1.315654
v -1.461620 -0.934370 -1.409455
v -1.688077 -0.934370 -1.315654
v -1.781878 -0.934370 -1.089198
v -1.688077 -0.934370 -0.862742
v -1.461620 -0.934370 -0.768941
v -1.235164 -0.934370 -0.862742
v -1.141363 -0.934370 -1.089198
v -1.461620 -2.544413 -1.089198
v -1.461620 -0.870667 -1.089198
vn 0.2243 -0.8103 -0.5414
vn -0.2243 -0.8103 -0.5414
vn -0.5414 -0.8103 -0.2243
vn -0.5414 -0.8103 0.2243
vn -0.2243 -0.8103 0.5414
vn 0.2243 -0.8103 0.5414
vn 0.5414 -0.8103 0.2243
vn 0.5414 -0.8103 -0.2243
vn 0.3256 -0.5253 -0.7862
vn -0.3256 -0.5253 -0.7862
vn -0.7862 -0.5253 -0.3256
vn -0.7862 -0.5253 0.3256
vn -0.3256 -0.5253 0.7862
vn 0.3256 -0.5253 0.7862
vn 0.7862 -0.5253 0.3256
vn 0.7862 -0.5253 -0.3256
vn 0.3764 -0.1807 -0.9087
vn -0.3764 -0.1807 -0.9087
vn -0.9087 -0.1807 -0.3764
vn -0.9087 -0.1807 0.3764
vn -0.3764 -0.1807 0.9087
vn 0.3764 -0.1807 0.9087
vn 0.9087 -0.1807 0.3764
vn 0.9087 -0.1807 -0.3764
vn 0.3764 0.1807 -0.9087
vn -0.3764 0.1807 -0.9087
vn -0.9087 0.1807 -0.3764
vn -0.9087 0.1807 0.3764
vn -0.3764 0.1807 0.9087
vn 0.3764 0.1807 0.9087
vn 0.9087 0.1807 0.3764
vn 0.9087 0.1807 -0.3764
vn 0.3256 0.5253 -0.7862
vn -0.3256 0.5253 -0.7862
vn -0.7862 0.5253 -0.3256
vn -0.7862 0.5253 0.3256
vn -0.3256 0.5253 0.7862
vn 0.3256 0.5253 0.7862
vn 0.7862 0.5253 0.3256
vn 0.7862 0.5253 -0.3256
vn 0.2243 0.8103 -0.5414
vn -0.2243 0.8103 -0.5414
vn -0.5414 0.8103 -0.2243
vn -0.5414 0.8103 0.2243
vn -0.2243 0.8103 0.5414
vn 0.2243 0.8103 0.5414
vn 0.5414 0.8103 0.2243
vn 0.5414 0.8103 -0.2243
vn 0.0805 -0.9776 -0.1945
vn -0.0805 -0.9776 -0.1945
vn -0.1945 -0.9776 -0.0805
vn -0.1945 -0.9776 0.0805
vn -0.0805 -0.9776 0.1945
vn 0.0805 -0.9776 0.1945
vn 0.1945 -0.9776 0.0805
vn 0.1945 -0.9776 -0.0805
vn 0.0805 0.9776 -0.1945
vn -0.0805 0.9776 -0.1945
vn -0.1945 0.9776 -0.0805
vn -0.1945 0.9776 0.0805
vn -0.0805 0.9776 0.1945
vn 0.0805 0.9776 0.1945
vn 0.1945 0.9776 0.0805
vn 0.1945 0.9776 -0.0805
s 0
f 1//1 2//1 9//1
f 9//1 2//1 10//1
f 2//2 3//2 10//2
f 10//2 3//2 11//2
f 3//3 4//3 11//3
f 11//3 4//3 12//3
f 4//4 5//4 12//4
f 12//4 5//4 13//4
f 5//5 6//5 13//5
f 13//5 6//5 14//5
f 6//6 7//6 14//6
f 14//6 7//6 15//6
f 7//7 8//7 15//7
f 15//7 8//7 16//7
f 8//8 1//8 16//8
f 17//9 10//9 18//9
f 16//8 1//8 9//8
f 10//10 11//10 18//10
f 18//10 11//10 19//10
f 11//11 12//11 19//11
f 19//11 12//11 20//11
f 9//9 10//9 17//9
f 12//12 13//12 20//12
f 20//12 13//12 21//12
f 13//13 14//13 21//13
f 21//13 14//13 22//13
f 14//14 15//14 22//14
f 22//14 15//14 23//14
f 15//15 16//15 23//15
f 23//15 16//15 24//15
f 16//16 9//16 24//16
f 24//16 9//16 17//16
f 17//17 18//17 25//17
f 25//17 18//17 26//17
f 18//18 19//18 26//18
f 26//18 19//18 27//18
f 19//19 20//19 27//19
f 27//19 20//19 28//19
f 20//20 21//20 28//20
f 28//20 21//20 29//20
f 21//21 22//21 29//21
f 29//21 22//21 30//21
f 22//22 23//22 30//22
f 30//22 23//22 31//22
f 23//23 24//23 31//23
f 31//23 24//23 32//23
f 24//24 17//24 32//24
f 32//24 17//24 25//24
f 25//25 26//25 33//25
f 33//25 26//25 34//25
f 26//26 27//26 34//26
f 34//26 27//26 35//26
f 27//27 28//27 35//27
f 35//27 28//27 36//27
f 28//28 29//28 36//28
f 36//28 29//28 37//28
f 29//29 30//29 37//29
f 37//29 30//29 38//29
f 30//30 31//30 38//30
f 38//30 31//30 39//30
f 31//31 32//31 39//31
f 39//31 32//31 40//31
f 32//32 25//32 40//32
f 40//32 25//32 33//32
f 33//33 34//33 41//33
f 41//33 34//33 42//33
f 34//34 35//34 42//34
f 42//34 35//34 43//34
f 35//35 36//35 43//35
f 43//35 36//35 44//35
f 36//36 37//36 44//36
f 44//36 37//36 45//36
f 37//37 38//37 45//37
f 45//37 38//37 46//37
f 38//38 39//38 46//38
f 46//38 39//38 47//38
f 39//39 40//39 47//39
f 47//39 40//39 48//39
f 40//40 33//40 48//40
f 48//40 33//40 41//40
f 41//41 42//41 49//41
f 49//41 42//41 50//41
f 42//42 43//42 50//42
f 50//42 43//42 51//42
f 43//43 44//43 51//43
f 51//43 44//43 52//43
f 44//44 45//44 52//44
f 52//44 45//44 53//44
f 45//45 46//45 53//45
f 53//45 46//45 54//45
f 46//46 47//46 54//46
f 54//46 47//46 55//46
f 47//47 48//47 55//47
f 55//47 48//47 56//47
f 48//48 41//48 56//48
f 56//48 41//48 49//48
f 2//49 1//49 57//49
f 3//50 2//50 57//50
f 4//51 3//51 57//51
f 5//52 4//52 57//52
f 6//53 5//53 57//53
f 7//54 6//54 57//54
f 8//55 7//55 57//55
f 1//56 8//56 57//56
f 49//57 50//57 58//57
f 50//58 51//58 58//58
f 51//59 52//59 58//59
f 52//60 53//60 58//60
f 53//61 54//61 58//61
f 54//62 55//62 58//62
f 55//63 56//63 58//63
f 56//64 49//64 58//64
o back_wall
v -2.715011 -2.742686 -2.785598
v 2.780989 -2.742686 -2.785598
v 2.780989 2.745313 -2.789967
v -2.779011 2.745313 -2.789967
vn -0.0000 0.0008 1.0000
s 0
usemtl Grey
f 59//65 61//65 62//65
f 59//65 60//65 61//65
o ceiling
v -2.779011 2.749765 2.802031
v -2.779011 2.745313 -2.789968
v 2.780989 2.745313 -2.789968
v 2.780989 2.749765 2.802031
vn -0.0000 -1.0000 0.0008
s 0
usemtl Cyan
f 64//66 66//66 63//66
f 64//66 65//66 66//66
o floor
v -2.747011 -2.738233 2.806401
v 2.780989 -2.738233 2.806401
v 2.780989 -2.742686 -2.785598
v -2.715011 -2.742686 -2.785598
vn -0.0000 1.0000 -0.0008
s 0
usemtl Green
f 68//67 70//67 67//67
f 68//67 69//67 70//67
o left_wall
v -2.747011 -2.738233 2.806401
v -2.715011 -2.742686 -2.785598
v -2.779011 2.745313 -2.789968
v -2.779011 2.749765 2.802031
vn 1.0000 0.0058 -0.0000
vn 0.9999 0.0117 0.0057
s 0
usemtl Mirror
f 71//68 73//68 74//68
f 71//69 72//69 73//69
o light
v -0.649011 2.739334 0.532032
v -0.649011 2.738497 -0.517968
v 0.650989 2.738497 -0.517968
v 0.650989 2.739334 0.532032
vn -0.0000 -1.0000 0.0008
s 0
usemtl White
f 76//70 78//70 75//70
f 76//70 77//70 78//70
o right_wall
v 2.780989 -2.742686 -2.785598
v 2.780989 -2.738233 2.806401
v 2.780989 2.749765 2.802031
v 2.780989 2.745313 -2.789968
vn -1.0000 -0.0000 -0.0000
s 0
usemtl Yellow
f 80//71 82//71 79//71
f 80//71 81//71 82//71
o short_box
v 1.920792 -1.571180 2.633400
v 2.260446 -1.572082 1.501219
v 1.142416 -1.572346 1.168641
v 0.788609 -1.571456 2.286670
v 0.788609 -2.739019 2.287600
v 0.788609 -1.571456 2.286670
v 1.142416 -1.572346 1.168641
v 1.142416 -2.739909 1.169570
v 1.920792 -2.738743 2.634331
v 1.920792 -1.571180 2.633400
v 0.788609 -1.571456 2.286670
v 0.788609 -2.739019 2.287600
v 2.260446 -2.739644 1.502149
v 2.260446 -1.572082 1.501219
v 1.920792 -1.571180 2.633400
v 1.920792 -2.738743 2.634331
v 1.142416 -2.739909 1.169570
v 1.142416 -1.572346 1.168641
v 2.260446 -1.572082 1.501219
v 2.260446 -2.739644 1.502149
vn -0.0000 1.0000 -0.0008
vn -0.9534 -0.0002 -0.3017
vn -0.2928 0.0008 0.9562
vn 0.9578 0.0002 0.2873
vn 0.2851 -0.0008 -0.9585
s 0
usemtl Glass
f 83//72 85//72 86//72
f 88//73 90//73 87//73
f 92//74 94//74 91//74
f 96//75 98//75 95//75
f 100//76 102//76 99//76
f 83//72 84//72 85//72
f 88//73 89//73 90//73
f 92//74 93//74 94//74
f 96//75 97//75 98//75
f 100//76 101//76 102//76
o tall_box
v -0.193087 -0.838894 1.292021
v 0.717996 -0.837634 1.009470
v 0.435446 -0.838829 0.086854
v -0.475637 -0.840085 0.375171
v -0.189985 -2.741788 1.293537
v -0.193087 -0.838894 1.292021
v -0.475637 -0.840085 0.375171
v -0.472535 -2.742979 0.376687
v -0.472535 -2.742979 0.376687
v -0.475637 -0.840085 0.375171
v 0.435446 -0.838829 0.086854
v 0.438548 -2.741723 0.088369
v 0.438548 -2.741723 0.088369
v 0.435446 -0.838829 0.086854
v 0.717996 -0.837634 1.009470
v 0.721098 -2.740527 1.010985
v 0.721098 -2.740527 1.010985
v 0.717996 -0.837634 1.009470
v -0.193087 -0.838894 1.292021
v -0.189985 -2.741788 1.293537
vn -0.0016 1.0000 -0.0008
vn -0.9556 -0.0013 0.2945
vn -0.3017 -0.0013 -0.9534
vn 0.9562 0.0013 -0.2928
vn 0.2962 0.0012 0.9551
s 0
usemtl Blue
f 104//77 106//77 103//77
f 107//78 109//78 110//78
f 112//79 114//79 111//79
f 116//80 118//80 115//80
f 120//81 122//81 119//81
f 104//77 105//77 106//77
f 107//78 108//78 109//78
f 112//79 113//79 114//79
f 116//80 117//80 118//80
f 120//81 121//81 122//81
